<?xml version="1.0" standalone="no"?>
<!DOCTYPE svg PUBLIC "-//W3C//DTD SVG 20010904//EN"
 "http://www.w3.org/TR/2001/REC-SVG-20010904/DTD/svg10.dtd">
<svg version="1.0" xmlns="http://www.w3.org/2000/svg"
 width="128.000000pt" height="128.000000pt" viewBox="0 0 128.000000 128.000000"
 preserveAspectRatio="xMidYMid meet">

<g transform="translate(0.000000,128.000000) scale(0.100000,-0.100000)"
fill="#000000" stroke="none">
<path d="M513 1108 c-38 -41 -43 -90 -43 -425 l0 -323 -110 0 c-119 0 -202
-13 -225 -37 -11 -10 -15 -38 -15 -102 0 -105 8 -117 96 -131 77 -13 821 -13
898 0 87 14 96 26 96 129 0 47 -4 91 -8 98 -15 24 -71 36 -199 41 l-132 5 -3
336 c-3 360 -8 394 -56 420 -12 6 -76 11 -150 11 -120 0 -130 -1 -149 -22z
m293 -73 c9 -27 13 -141 13 -357 l1 -318 -150 0 -150 0 0 325 c0 263 3 332 15
361 l14 35 123 -3 122 -3 12 -40z m309 -733 l40 -7 3 -72 c3 -72 3 -72 -25
-80 -37 -10 -899 -10 -936 0 -28 8 -28 8 -25 80 l3 72 35 6 c49 9 856 9 905 1z"/>
</g>
</svg>
